<?xml version="1.0" encoding="UTF-8" standalone="no"?>
<svg
   xmlns:dc="http://purl.org/dc/elements/1.1/"
   xmlns:cc="http://creativecommons.org/ns#"
   xmlns:rdf="http://www.w3.org/1999/02/22-rdf-syntax-ns#"
   xmlns:svg="http://www.w3.org/2000/svg"
   xmlns="http://www.w3.org/2000/svg"
   viewBox="0 0 1280 136"
   height="136"
   width="1280"
   xml:space="preserve"
   id="svg2"
   version="1.1"><metadata
     id="metadata8"><rdf:RDF><cc:Work
         rdf:about=""><dc:format>image/svg+xml</dc:format><dc:type
           rdf:resource="http://purl.org/dc/dcmitype/StillImage" /></cc:Work></rdf:RDF></metadata><defs
     id="defs6"><clipPath
       id="clipPath20"
       clipPathUnits="userSpaceOnUse"><path
         id="path18"
         d="m 8731.83,754.539 c 0,163.617 85.81,248.761 243.96,248.761 h 291.07 c 176.67,0 314.63,-133.562 314.63,-305.527 0,-93.496 -38.69,-170.296 -102.63,-218.71 l 87.49,-138.575 c 23.56,-36.73 33.65,-76.8 33.65,-118.539 0,-123.5506 -97.59,-220.38259 -220.41,-220.38259 -75.71,0 -149.74,38.39839 -191.8,108.51959 l -23.56,41.738 C 9135.63,63.3398 9056.55,1.56641 8955.6,1.56641 c -122.82,0 -223.77,103.51159 -223.77,228.73059 z m -66.79,-561.023 c 0,-107.7504 -86.26,-193.60975 -190.78,-191.92616 h -348.38 c -159.27,0 -245.53,84.17576 -245.53,249.16416 v 503.383 c 0,163.304 86.26,249.163 245.53,249.163 h 348.38 c 104.52,0 190.78,-85.859 190.78,-193.605 0,-97.644 -59.72,-168.355 -145.99,-185.191 39.82,-25.254 61.39,-67.34 61.39,-122.899 0,-55.558 -23.23,-97.644 -61.39,-122.898 84.61,-16.836 145.99,-89.23 145.99,-185.191 z M 7609.88,226.957 C 7609.88,103.41 7506.37,1.56641 7367.79,1.56641 7237.57,1.56641 7132.38,103.41 7132.38,226.957 v 345.598 c -111.86,6.679 -203.68,98.508 -203.68,215.375 0,121.879 96.83,215.37 215.37,215.37 h 454.12 c 118.54,0 215.38,-95.159 215.38,-215.37 0,-116.867 -91.83,-210.364 -203.69,-215.375 z M 6043.83,754.539 c 0,163.617 87.49,248.761 243.96,248.761 h 291.07 c 176.67,0 314.63,-133.562 314.63,-305.527 0,-93.496 -38.69,-170.296 -102.63,-218.71 l 87.49,-138.575 c 23.56,-36.73 33.65,-76.8 33.65,-118.539 0,-123.5506 -97.59,-220.38259 -220.41,-220.38259 -75.71,0 -149.74,38.39839 -191.8,108.51959 l -23.56,41.738 C 6447.63,63.3398 6368.55,1.56641 6267.6,1.56641 6144.78,1.56641 6043.83,105.078 6043.83,230.297 Z M 5491.53,192.402 C 5434.57,74.6484 5354.16,18.2617 5256.99,18.2617 c -175.9,0 -303.23,160.8753 -224.49,341.6523 l 206.06,477.649 C 5290.5,955.316 5365.88,1020 5493.2,1020 c 129,0 204.39,-64.684 254.65,-182.437 l 206.06,-477.649 c 77.06,-180.777 -48.59,-341.6523 -226.17,-341.6523 -98.84,0 -179.25,56.3867 -236.21,174.1403 z M 4904.8,226.957 C 4904.8,103.41 4799.42,1.56641 4663.93,1.56641 4533.45,1.56641 4428.07,103.41 4428.07,226.957 V 572.555 C 4316,579.234 4224,671.063 4224,787.93 c 0,121.879 97.02,215.37 215.78,215.37 h 453.31 c 118.76,0 215.78,-95.159 215.78,-215.37 0,-116.867 -92,-210.364 -204.07,-215.375 z M 4224,326.527 C 4224,127.195 4070.08,1.56641 3810.76,1.56641 c -264.35,0 -388.15,90.45309 -388.15,237.85559 0,102.18 78.63,167.508 190.73,167.508 h 1.67 l -60.23,55.277 c -75.29,68.676 -127.15,137.356 -127.15,237.856 0,195.984 143.88,319.937 389.82,319.937 250.96,0 369.74,-88.777 369.74,-237.859 0,-88.778 -60.23,-149.078 -150.57,-162.481 l 61.9,-55.277 c 75.29,-67 125.48,-137.352 125.48,-237.856 z m -851.48,-83.98 c 0,-122.93 -102.79,-225.9259 -229.18,-224.2657 -70.78,0 -143.24,33.2226 -187.05,96.3517 l -47.19,66.449 C 2887.2,84.7305 2802.93,18.2813 2695.09,18.2813 c -124.71,0 -224.13,99.6717 -224.13,222.6057 v 556.508 c 0,122.933 97.74,222.605 224.13,222.605 109.53,0 195.47,-71.434 215.7,-169.445 l 52.24,73.093 c 43.81,59.805 114.59,94.692 185.36,94.692 121.34,0 224.13,-94.692 224.13,-217.621 0,-46.516 -13.48,-93.028 -42.13,-131.239 L 3222.54,521.633 3330.39,373.781 c 28.65,-39.867 42.13,-84.718 42.13,-131.234 z m -985.04,51.027 c 0,-160.875 -134.44,-275.3123 -350.22,-275.3123 -288.81,0 -501.26,213.9453 -501.26,500.8673 0,286.922 212.45,500.871 501.26,500.871 215.78,0 350.22,-114.437 350.22,-275.312 0,-107.805 -53.12,-180.778 -159.34,-225.559 106.22,-44.777 159.34,-119.41 159.34,-225.555 z M 1211.27,1020 c 134.95,0 242.92,-109.824 241.23,-239.617 V 257.879 c 0,-129.793 -106.28,-239.6173 -242.92,-239.6173 -133.27,0 -241.232,108.1603 -241.232,239.6173 V 780.383 C 968.348,910.176 1076.31,1020 1211.27,1020 Z M 901.566,242.547 c 0,-122.93 -102.605,-225.9259 -230.437,-224.2657 -70.645,0 -142.973,33.2226 -186.707,96.3517 l -47.094,66.449 C 415.461,84.7305 331.359,18.2813 223.711,18.2813 99.2383,18.2813 0,117.953 0,240.887 V 797.395 C 0,920.328 97.5586,1020 223.711,1020 c 109.328,0 195.113,-71.434 215.297,-169.445 l 53.824,73.093 c 43.734,59.805 114.379,94.692 185.023,94.692 121.106,0 223.711,-94.692 223.711,-217.621 0,-46.516 -13.457,-93.028 -42.05,-131.239 L 751.863,521.633 859.516,373.781 c 28.593,-39.867 42.05,-84.718 42.05,-131.234 z" /></clipPath><clipPath
       id="clipPath26"
       clipPathUnits="userSpaceOnUse"><path
         id="path24"
         d="M 0,0 H 9600 V 1020 H 0 Z" /></clipPath></defs><g
     transform="matrix(1.3333333,0,0,-1.3333333,0,136)"
     id="g10"><g
       transform="scale(0.1)"
       id="g12"><g
         id="g14"><g
           clip-path="url(#clipPath20)"
           id="g16"><g
             clip-path="url(#clipPath26)"
             id="g22"><path
               id="path28"
               style="fill:#044651;fill-opacity:1;fill-rule:nonzero;stroke:none"
               d="M 0,0 H 9750 V 1170 H 0 Z" /></g></g></g></g></g></svg>